<?xml version="1.0" standalone="no"?>
<!DOCTYPE svg PUBLIC "-//W3C//DTD SVG 20010904//EN"
 "http://www.w3.org/TR/2001/REC-SVG-20010904/DTD/svg10.dtd">
<svg version="1.0" xmlns="http://www.w3.org/2000/svg"
 width="225.000000pt" height="225.000000pt" viewBox="0 0 225.000000 225.000000"
 preserveAspectRatio="xMidYMid meet">

<g transform="translate(0.000000,225.000000) scale(0.100000,-0.100000)"
fill="#000000" stroke="none">
<path d="M1505 1976 c-18 -13 -18 -15 -2 -40 21 -32 29 -32 63 -3 18 16 25 30
21 40 -8 21 -56 22 -82 3z"/>
<path d="M1317 1932 c-17 -18 -17 -21 -2 -36 9 -9 23 -16 30 -16 20 0 46 30
43 49 -5 24 -51 26 -71 3z"/>
<path d="M1185 1877 c-67 -38 -57 -97 16 -97 42 0 79 27 79 58 -1 19 -33 62
-47 62 -4 0 -26 -11 -48 -23z"/>
<path d="M964 1696 c-58 -58 -42 -104 39 -113 39 -5 46 -2 70 27 32 38 34 59
6 94 -30 38 -72 35 -115 -8z"/>
<path d="M692 1698 c-18 -24 -24 -59 -12 -73 30 -36 106 3 94 48 -8 34 -62 49
-82 25z"/>
<path d="M557 1505 c-21 -8 -44 -12 -52 -9 -10 4 -15 0 -15 -12 0 -11 -14 -31
-31 -45 -28 -22 -30 -28 -20 -47 6 -12 20 -22 31 -22 10 0 31 -16 46 -35 31
-41 43 -43 81 -12 15 13 36 27 47 30 16 6 18 14 11 50 -4 23 -8 55 -8 71 -1
19 -9 32 -22 37 -26 10 -23 10 -68 -6z"/>
<path d="M856 1457 c-51 -48 -53 -56 -30 -92 46 -71 142 -83 177 -24 21 38 21
59 2 106 -19 44 -30 53 -71 53 -23 0 -43 -11 -78 -43z"/>
<path d="M1525 1428 c-131 -14 -142 -17 -195 -54 -34 -24 -71 -39 -111 -46
-41 -7 -79 -23 -118 -49 -32 -22 -63 -39 -68 -39 -5 0 -35 -27 -68 -60 -35
-36 -71 -62 -89 -66 -30 -6 -95 -63 -195 -168 -25 -27 -63 -59 -83 -72 -40
-25 -128 -152 -128 -184 0 -25 60 -82 110 -105 l40 -18 126 119 c159 150 196
181 255 219 26 16 73 48 105 69 97 66 295 163 369 182 45 11 103 17 160 17
l91 -1 1 52 c1 29 9 70 17 91 28 65 22 81 -31 98 -70 22 -99 24 -188 15z"/>
<path d="M1635 1110 c-152 -27 -513 -186 -590 -259 -22 -21 -65 -57 -95 -80
-77 -60 -176 -157 -220 -216 -21 -27 -50 -61 -64 -75 -40 -36 -67 -85 -60
-105 4 -10 30 -28 58 -42 28 -13 66 -35 85 -48 50 -37 65 -32 109 33 49 71
174 191 238 228 27 15 92 53 144 84 113 68 220 122 275 140 22 7 67 25 100 40
33 15 90 33 126 40 63 11 67 14 73 42 3 17 6 45 6 62 0 38 -37 148 -53 158
-14 9 -77 8 -132 -2z"/>
</g>
</svg>
